<?xml version="1.0" encoding="UTF-8" standalone="no"?>
<!-- Created with Inkscape (http://www.inkscape.org/) -->

<svg
   width="5.625mm"
   height="5.625mm"
   viewBox="0 0 5.625 5.625"
   version="1.1"
   id="svg1065"
   sodipodi:docname="logo_02.svg"
   inkscape:export-filename="/home/salvatore/git/Hinode_Test/assets/logos/logo_01.png"
   inkscape:export-xdpi="96"
   inkscape:export-ydpi="96"
   inkscape:version="1.1.2 (0a00cf5339, 2022-02-04)"
   xmlns:inkscape="http://www.inkscape.org/namespaces/inkscape"
   xmlns:sodipodi="http://sodipodi.sourceforge.net/DTD/sodipodi-0.dtd"
   xmlns="http://www.w3.org/2000/svg"
   xmlns:svg="http://www.w3.org/2000/svg">
  <sodipodi:namedview
     id="namedview1067"
     pagecolor="#ffffff"
     bordercolor="#666666"
     borderopacity="1.0"
     inkscape:pageshadow="2"
     inkscape:pageopacity="0.0"
     inkscape:pagecheckerboard="0"
     inkscape:document-units="mm"
     showgrid="false"
     inkscape:snap-nodes="true"
     inkscape:zoom="1.898179"
     inkscape:cx="11.326645"
     inkscape:cy="42.145656"
     inkscape:window-width="1920"
     inkscape:window-height="1016"
     inkscape:window-x="0"
     inkscape:window-y="27"
     inkscape:window-maximized="1"
     inkscape:current-layer="layer2"
     fit-margin-top="0"
     fit-margin-left="0"
     fit-margin-right="0"
     fit-margin-bottom="0" />
  <defs
     id="defs1062" />
  <g
     inkscape:groupmode="layer"
     id="layer2"
     inkscape:label="background"
     transform="translate(-65.417603,-60.250984)">
    <rect
       style="fill:#0da574;fill-opacity:1;stroke-width:0.0381293"
       id="rect4097"
       width="5.625"
       height="5.625"
       x="65.417603"
       y="60.250984"
       ry="0.63316077" />
  </g>
  <g
     inkscape:label="Layer 1"
     inkscape:groupmode="layer"
     id="layer1"
     transform="translate(-65.417603,-60.250984)">
    <g
       id="g7977"
       transform="matrix(0.125,0,0,0.125,56.595585,50.962853)">
      <path
         style="color:#000000;fill:#0e2431;fill-opacity:1;stroke-width:0.590019"
         d="m 130.24245,142.9543 a 0.2002354,0.27384167 0 0 0 -0.20003,0.27357 0.2002354,0.27384167 0 0 0 0.20003,0.27358 h 1.07312 a 0.2002354,0.27384167 0 0 0 0.20003,-0.27358 0.2002354,0.27384167 0 0 0 -0.20003,-0.27357 z"
         fill="#000000"
         stroke-linecap="round"
         stroke-linejoin="round"
         id="path795"
         transform="matrix(7.2374554,0,0,7.2374554,-837.56968,-939.80513)" />
      <path
         style="color:#000000;fill:#0e2431;fill-opacity:1;stroke-width:0.590019"
         d="m 125.8593,141.95704 a 0.2002354,0.27384167 0 0 0 -0.20003,0.27357 0.2002354,0.27384167 0 0 0 0.20003,0.27357 h 1.07312 a 0.2002354,0.27384167 0 0 0 0.20003,-0.27357 0.2002354,0.27384167 0 0 0 -0.20003,-0.27357 z"
         fill="#000000"
         stroke-linecap="round"
         stroke-linejoin="round"
         id="path795-3"
         transform="matrix(7.2374554,0,0,7.2374554,-837.56968,-939.80513)" />
      <path
         style="color:#000000;fill:#0e2431;fill-opacity:1;stroke-width:0.590019"
         d="m 125.8593,143.95156 a 0.2002354,0.27384167 0 0 0 -0.20004,0.27357 0.2002354,0.27384167 0 0 0 0.20004,0.27357 h 1.07311 a 0.2002354,0.27384167 0 0 0 0.20004,-0.27357 0.2002354,0.27384167 0 0 0 -0.20004,-0.27357 z"
         fill="#000000"
         stroke-linecap="round"
         stroke-linejoin="round"
         id="path795-3-6"
         transform="matrix(7.2374554,0,0,7.2374554,-837.56968,-939.80513)" />
      <g
         transform="matrix(7.2374553,0,0,7.2374553,-837.56967,-939.80514)"
         id="g801">
        <path
           style="color:#000000;fill:#ffd717;fill-opacity:1;stroke-width:0.689994"
           d="m 127.18811,140.95709 c -0.32961,0 -0.6024,0.27279 -0.6024,0.6024 v 3.33677 c 0,0.32961 0.27279,0.60374 0.6024,0.60374 h 1.13067 c 1.25097,0 2.27213,-1.02101 2.27213,-2.27213 0,-1.25111 -1.02101,-2.27078 -2.27213,-2.27078 z m 0,0.54714 h 1.13067 c 0.95512,0 1.72364,0.76852 1.72364,1.72364 0,0.95514 -0.76871,1.72364 -1.72364,1.72364 h -1.13067 c -0.0336,0 -0.0553,-0.0217 -0.0553,-0.0553 v -3.33677 c 0,-0.0336 0.0217,-0.0553 0.0553,-0.0553 z"
           fill="#000000"
           stroke-linecap="round"
           stroke-linejoin="round"
           id="path793" />
        <path
           style="color:#000000;fill:#0e2431;fill-opacity:1;stroke-width:0.586398"
           d="m 127.39814,141.29779 c -0.28017,0 -0.51204,0.23179 -0.51204,0.51187 v 2.83532 c 0,0.28008 0.23187,0.51301 0.51204,0.51301 h 0.96107 c 1.06332,0 1.93131,-0.86757 1.93131,-1.93068 0,-1.06309 -0.86786,-1.92952 -1.93131,-1.92952 z m 0,0.46491 h 0.96107 c 0.81185,0 1.46509,0.65303 1.46509,1.46461 0,0.81161 -0.6534,1.46462 -1.46509,1.46462 h -0.96107 c -0.0286,0 -0.047,-0.0184 -0.047,-0.047 v -2.83532 c 0,-0.0286 0.0184,-0.047 0.047,-0.047 z"
           fill="#000000"
           stroke-linecap="round"
           stroke-linejoin="round"
           id="path793-9" />
      </g>
    </g>
  </g>
</svg>
